<svg xmlns="http://www.w3.org/2000/svg" width="72" height="37" viewBox="0 0 72 37">
    <g fill="none" fill-rule="evenodd">
        <path fill="#8C939C" fill-rule="nonzero" d="M71.158 20.487c1.13-1.126 1.12-2.958-.015-4.088L55.523.906C52.8-1.84 48.72 2.279 51.44 5.024l9.11 9.194c.748.755.497 1.37-.57 1.37H38.086c-1.594 0-2.887 1.304-2.887 2.912 0 1.608 1.293 2.913 2.887 2.913H59.98c1.064 0 1.32.614.571 1.369l-9.11 9.194c-2.721 2.745 1.36 6.864 4.081 4.118l15.636-15.607z"/>
        <path fill="#8C939C" fill-rule="nonzero" d="M71.158 20.487c1.13-1.126 1.12-2.958-.015-4.088L55.523.906C52.8-1.84 48.72 2.279 51.44 5.024l9.11 9.194c.748.755.497 1.37-.57 1.37H38.086c-1.594 0-2.887 1.304-2.887 2.912 0 1.608 1.293 2.913 2.887 2.913H59.98c1.064 0 1.32.614.571 1.369l-9.11 9.194c-2.721 2.745 1.36 6.864 4.081 4.118l15.636-15.607z"/>
        <ellipse cx="29.2" cy="18.098" fill="#12D572" rx="2.8" ry="2.815"/>
        <ellipse cx="20.4" cy="18.098" fill="#12D572" rx="2.8" ry="2.815"/>
        <ellipse cx="11.6" cy="18.098" fill="#12D572" rx="2.8" ry="2.815"/>
        <ellipse cx="2.8" cy="18.098" fill="#12D572" rx="2.8" ry="2.815"/>
    </g>
</svg>
