<svg xmlns="http://www.w3.org/2000/svg" width="63" height="47" viewBox="0 0 63 47">
    <g fill="none" fill-rule="evenodd">
        <path fill="#8C939C" d="M39.375-.06C52.423-.06 63 10.46 63 23.44c0 12.978-10.577 23.5-23.625 23.5H15.75a.982.982 0 0 1-.984-.98c0-.54.44-.979.984-.979h14.168c-5.75-2.501-10.305-7.213-12.58-13.055H.984a.982.982 0 0 1-.984-.98c0-.54.44-.979.984-.979h15.69a23.396 23.396 0 0 1-.924-6.528c0-2.265.322-4.455.923-6.527H.984a.982.982 0 0 1-.984-.98c0-.54.44-.979.984-.979h16.354c2.275-5.843 6.83-10.554 12.58-13.055H15.75a.982.982 0 0 1-.984-.98c0-.54.44-.979.984-.979h23.625zm0 1.958c-11.96 0-21.656 9.644-21.656 21.541s9.696 21.542 21.656 21.542c11.96 0 21.656-9.645 21.656-21.542 0-11.897-9.696-21.541-21.656-21.541z"/>
        <path fill="#1FB6FF" d="M39.375 12.669c0-.541.44-.98.984-.98s.985.439.985.98v11.32l-10.137 9.94a.988.988 0 0 1-1.392-.01.976.976 0 0 1 .01-1.385l9.55-9.365v-10.5z"/>
    </g>
</svg>
