<svg xmlns="http://www.w3.org/2000/svg" width="232" height="107" viewBox="0 0 232 107">
    <g fill="none" fill-rule="evenodd">
        <path fill="#DCE1E5" d="M107.976 78.713c0 .34 1.949 17.686 13.902 23.581-1.39.458-2.877.706-4.426.706-7.765 0-14-6.225-14-13.975a13.92 13.92 0 0 1 4.524-10.312zm71.033 0c0 .34.537 16.41 13.902 23.581-1.39.458-2.878.706-4.427.706-7.764 0-14-6.225-14-13.975a13.92 13.92 0 0 1 4.525-10.312zm25.07.396c4.745 8.219 7.923 9.62 10.783 9.663l.138.001h-7.015c-3.346.424-2.34-.96-2.293-2.203l.001-.084-1.614-7.377zm-70.817 0c4.744 8.219 7.923 9.62 10.783 9.663l.138.001h-7.015c-3.347.424-2.34-.96-2.293-2.203l.001-.084-1.614-7.377zM87 67.044c0 9.094 9.963 21.451 12.985 21.724l.1.005H89.29a2.29 2.29 0 0 1-2.286-2.13L87 86.485V67.044zM153.862 3c0 18.05 22.15 35.41 44.299 35.41h-44.3z"/>
        <path fill="#8C939C" d="M95.302 0l78.799.35a6.894 6.894 0 0 1 5.865 3.306l18.502 30.405c.274.451.697.794 1.195.97l27.752 9.824A6.872 6.872 0 0 1 232 51.33v34.554c0 3.795-3.085 6.87-6.89 6.87h-18.674l.003-.023c-1.937 8.201-9.295 14.269-18.127 14.269-9.05 0-16.551-6.37-18.26-14.878l.031.633h-34.846C133.291 100.942 125.94 107 117.115 107s-16.176-6.057-18.121-14.246H88.89c-3.805 0-6.89-3.075-6.89-6.87V66.417a2.293 2.293 0 0 1 2.297-2.29 2.293 2.293 0 0 1 2.296 2.29v19.467a2.293 2.293 0 0 0 2.297 2.29h9.601l.001-.086c.18-10.133 8.417-18.236 18.623-18.236 10.235 0 18.49 8.149 18.625 18.322h33.947l.002-.086c.18-10.133 8.417-18.236 18.623-18.236 10.235 0 18.49 8.149 18.624 18.322h18.174a2.293 2.293 0 0 0 2.297-2.29V51.33a2.29 2.29 0 0 0-1.529-2.159l-19.337-6.845h-52.932a4.587 4.587 0 0 1-4.593-4.58l-.001-32.927-53.73-.238a2.293 2.293 0 0 1-2.288-2.3A2.294 2.294 0 0 1 95.302 0zm21.813 74.433c-7.782 0-14.032 6.232-14.032 13.993s6.25 13.994 14.032 13.994c7.783 0 14.033-6.233 14.033-13.994 0-7.76-6.25-13.993-14.033-13.993zm71.197 0c-7.783 0-14.033 6.232-14.033 13.993s6.25 13.994 14.033 13.994c7.782 0 14.032-6.233 14.032-13.994 0-7.76-6.25-13.993-14.032-13.993zM153.609 4.839v32.907h41.965a6.872 6.872 0 0 1-1.033-1.309L176.04 6.033a2.298 2.298 0 0 0-1.955-1.103l-20.475-.091z"/>
        <path fill="#1FB6FF" d="M105.233 20.38L116.7 11l11.326 6.963.034 26.132L105.233 58 82 44.095V18.002L93.56 11z"/>
        <path fill="#1791CC" d="M112.574 53.528c-5.03 2.981-7.476 4.472-7.341 4.472L82 44.095V18.002l2.777-1.682c1.189 17.76 10.454 30.163 27.797 37.208z"/>
        <path fill="#FFF" d="M107.38 27.92a1.88 1.88 0 1 1-3.759.001 1.88 1.88 0 0 1 3.759 0M107.38 34.498a1.88 1.88 0 1 1-3.761.002 1.88 1.88 0 0 1 3.761-.002M107.38 41.08a1.88 1.88 0 1 1-3.76.001 1.88 1.88 0 0 1 3.76-.002"/>
        <g fill="#1FB6FF">
            <path d="M29.793 46.66c-1.08 0-1.959.879-1.959 1.957s.88 1.957 1.959 1.957H72.88c1.079 0 1.959-.879 1.959-1.957s-.88-1.957-1.959-1.957H29.793zM13.959 31c-1.08 0-1.959.88-1.959 1.957 0 1.079.88 1.958 1.959 1.958H64.88c1.079 0 1.959-.88 1.959-1.958 0-1.078-.88-1.957-1.959-1.957H13.96zM2.041 15.34c-1.078 0-1.958.88-1.958 1.958 0 1.078.88 1.957 1.958 1.957h54.84c1.078 0 1.958-.879 1.958-1.957s-.88-1.958-1.959-1.958H2.041z"/>
        </g>
    </g>
</svg>
