<svg xmlns="http://www.w3.org/2000/svg" width="47" height="48" viewBox="0 0 47 48">
    <g fill="none" fill-rule="evenodd">
        <path fill="#8C939C" d="M34.048 4.917c-4.24 0-8.139 2.134-10.55 5.673-2.41-3.54-6.308-5.673-10.548-5.673C5.81 4.917 0 10.984 0 18.44c0 8.323 5.765 14.102 10.1 17.725a66.3 66.3 0 0 0 6.697 4.877l6.226 3.876a1.066 1.066 0 0 0 1.15-.014l6.143-4.023a75.304 75.304 0 0 0 6.572-4.925C41.596 31.981 47 26.394 47 18.44c0-7.456-5.81-13.523-12.952-13.523zm1.46 29.41a72.22 72.22 0 0 1-6.364 4.769l-5.569 3.65-5.645-3.516a63.386 63.386 0 0 1-6.458-4.704C7.464 31.18 2.137 25.87 2.137 18.441c0-6.278 4.851-11.387 10.814-11.387 4.043 0 7.719 2.346 9.592 6.124a1.068 1.068 0 0 0 1.913 0c1.875-3.778 5.549-6.124 9.592-6.124 5.962 0 10.813 5.108 10.813 11.387.002 7.073-4.997 12.205-9.353 15.885z"/>
        <path fill="#1FB6FF" d="M17.818 11.277l1.385 1.385L7.249 24.346 5.865 22.96l11.953-11.684zm-6.98-.883l1.385 1.385-5.36 5.344-1.384-1.385 5.36-5.344z"/>
    </g>
</svg>
