<svg xmlns="http://www.w3.org/2000/svg" width="32" height="32" viewBox="0 0 32 32">
    <g fill="none" fill-rule="evenodd">
        <path fill="#8C939C" d="M8.925 15.333a.667.667 0 0 1 0 1.334H6.517l-4.667 14h28.297l-4.667-14h-2.408a.667.667 0 0 1 0-1.334h3.369L31.997 32H0l5.556-16.667zM19.333 24a.667.667 0 1 1 0 1.333h-6.666a.667.667 0 1 1 0-1.333z"/>
        <path fill="#DCE1E5" d="M5.594 19.431l-.04.165c-1.132 4.779.328 8.469 4.38 11.07H1.85l3.744-11.235zM9.323 3.164C10.913 1.23 5.333 14 19.506 18.727c-.68.826-1.848 2.14-3.506 3.94-5.778-6.079-8.667-10.725-8.667-13.938a8.73 8.73 0 0 1 1.99-5.565zM6.517 16.667l-.923 2.764.038-.148c.19-.734.439-1.494.748-2.278l.137-.338z"/>
        <path fill="#979797" fill-rule="nonzero" d="M16 22.667c5.778-6.079 8.667-10.725 8.667-13.938C24.667 3.908 20.787 0 16 0c-4.786 0-8.667 3.908-8.667 8.729 0 3.213 2.89 7.86 8.667 13.938zm0-1.952c-4.906-5.332-7.333-9.39-7.333-11.986 0-4.087 3.285-7.396 7.333-7.396s7.333 3.31 7.333 7.396c0 2.595-2.427 6.654-7.333 11.986z"/>
        <path fill="#979797" fill-rule="nonzero" d="M16.228 13.322c2.645 0 4.79-2.16 4.79-4.823 0-2.664-2.145-4.824-4.79-4.824s-4.79 2.16-4.79 4.824c0 2.664 2.145 4.823 4.79 4.823zm0-1.333c-1.907 0-3.456-1.56-3.456-3.49 0-1.93 1.55-3.49 3.456-3.49 1.907 0 3.456 1.56 3.456 3.49 0 1.93-1.55 3.49-3.456 3.49z"/>
    </g>
</svg>
