<svg xmlns="http://www.w3.org/2000/svg" width="85" height="17" viewBox="0 0 85 17">
    <g fill="#FF9600" fill-rule="evenodd">
        <path d="M18.443 6.33H12.36L10.425.212 8.49 6.33H2.406l5.188 3.764-2.358 6.118 5.189-3.765 5.188 3.765-2.358-6.118z"/>
        <path d="M34.481 6.33h-6.085L26.462.212 24.528 6.33h-6.085l5.19 3.764-2.36 6.118 5.19-3.765 5.188 3.765-2.359-6.118z"/>
        <path d="M50.519 6.33h-6.085L42.5.212 40.566 6.33H34.48l5.189 3.764-2.359 6.118 5.189-3.765 5.189 3.765-2.359-6.118zM66.557 6.33h-6.085L58.538.212 56.604 6.33h-6.085l5.189 3.764-2.36 6.118 5.19-3.765 5.189 3.765-2.36-6.118zM82.594 6.33H76.51L74.575.212 72.641 6.33h-6.084l5.188 3.764-2.358 6.118 5.188-3.765 5.19 3.765-2.36-6.118z"/>
    </g>
</svg>
