<svg xmlns="http://www.w3.org/2000/svg" width="85" height="17" viewBox="0 0 85 17">
    <g fill="none" fill-rule="evenodd">
        <path fill="#737373" d="M12.879 6.48l-4.45-.645-1.99-4.023-1.988 4.023L0 6.48l3.222 3.13-.76 4.418 3.977-2.085 3.978 2.085-.76-4.418zM30.906 6.48l-4.45-.645-1.99-4.023-1.989 4.023-4.45.645 3.222 3.13-.76 4.418 3.977-2.085 3.978 2.085-.76-4.418zM48.933 6.48l-4.451-.645-1.989-4.023-1.989 4.023-4.45.645 3.222 3.13-.76 4.418 3.977-2.085 3.978 2.085-.76-4.418zM66.96 6.48l-4.451-.645-1.989-4.023-1.989 4.023-4.45.645 3.221 3.13-.76 4.418 3.978-2.085 3.978 2.085-.76-4.418z"/>
        <path fill="#D9D9D9" d="M84.986 6.48l-4.45-.645-1.989-4.023-1.989 4.023-4.45.645 3.221 3.13-.76 4.418 3.978-2.085 3.978 2.085-.76-4.418z"/>
    </g>
</svg>
